<?xml version="1.0" encoding="utf-8"?>
<!-- Generator: Adobe Illustrator 24.3.0, SVG Export Plug-In . SVG Version: 6.00 Build 0)  -->
<svg version="1.1" id="Layer_1" xmlns="http://www.w3.org/2000/svg" xmlns:xlink="http://www.w3.org/1999/xlink" x="0px" y="0px"
	 viewBox="0 0 1920 1080" style="enable-background:new 0 0 1920 1080;" xml:space="preserve">
<style type="text/css">
	.st0{fill:#FFFFFF;}
</style>
<g>
	<path class="st0" d="M185.1,1079.4c0-359.8,0-719.6,0-1079.4C722.4,0,1259.7,0,1797,0c0,359.8,0,719.6,0,1079.4
		C1259.7,1079.4,722.4,1079.4,185.1,1079.4z M840.4,530.7c-0.9-2-1.1-2.3-1.1-2.5c1.5-5.2,3-10.3,4.5-15.5
		c14.9-51.9,12.9-101.8-16.7-148.7c-21.9-34.8-51.5-60.6-91.1-71.6c-48.4-13.4-96.9-11.1-145,4.6c-61.9,20.3-106.5,58.3-128,120.9
		c-13.6,39.7-19.6,80.6-4.7,120.7c23.3,62.2,67.7,101.7,133.8,115.1c3.1,0.6,7.5,1.3,8.7,3.5c7,12.4,13.2,25.3,20.3,39.4
		c-9.6,0-17.9-0.4-26.1,0.2c-3,0.2-7.3,1.8-8.6,4.1c-3,5.2,2.1,17.6,7.5,21c14.5,9.1,31,10.1,47.4,11.8c3.3,0.3,7,2.4,9.4,4.8
		c15.7,16,29.6,34.2,46.8,48.3c52.3,42.4,111.9,71.2,177,88.4c62.8,16.5,125.6,17.1,187.7-3.1c17.5-5.7,34.3-13.7,51.9-20.8
		c5.9,6.6,12.4,13.6,18.6,20.9c1.6,1.9,1.9,4.9,3.2,7.2c0.8,1.4,2.3,2.9,3.8,3.5c10,3.9,26.2-7.7,24.8-18.3
		c-1.8-13.8-4.8-27.5-7.2-40.9c12.5-11.9,26.3-23.9,38.7-37.2c4-4.2,7-6.4,12.5-5.6c16.3,2.3,32.6,4.6,48.9,6.6
		c11.3,1.4,14.4-0.8,16.2-12c0.6-4.2,0.3-8.9-1.1-12.9c-15.6-47-46.2-84.9-75.7-123.3c-3.4-4.5-3.8-7.6-1.6-12.7
		c9.1-20.5,26.2-34,41.8-48.7c34-31.9,55.2-71,66.4-115.9c1.2-4.8,1.1-10.2,0.4-15.1c-0.8-6.4-4.9-9.9-11.7-10
		c-7-0.1-9.1,4.8-10.5,10.2c-1.3,4.9-1.8,10.1-3.6,14.7c-15.9,39.9-40,73.3-76.9,96.6c-17.7,11.2-32.8,25.1-41.7,46.1
		c-36.5-33.5-82.3-41.8-128.5-47.9c-43.6-5.8-87.5-9.3-131.2-14.7C879.7,539,859.6,534.2,840.4,530.7z M1133.9,236.3
		c0-0.7,0-1.3,0-2c14.7,0,29.3,0.3,44-0.1c49.4-1.4,98.7-3.1,148.1-4.6c5.3-0.2,10.4-1.4,10.2-7.5c-0.2-6.3-5-7.7-11-7.2
		c-16.7,1.2-33.4,2.1-50.2,2.6c-86.8,2.7-173.5,5.2-260.3,7.7c-9.3,0.3-18.6-0.2-27.8,0.3c-2.7,0.2-5.2,2.8-7.8,4.2
		c2,2.3,3.6,5.6,6.1,6.6c3.4,1.5,7.6,1.7,11.4,1.6C1042.3,237.6,1088.1,236.9,1133.9,236.3z M999.1,170.3c7.2,12,12.8,21.7,19,31.1
		c1.6,2.4,5.9,5.7,7.3,5.1c2.6-1.2,5.4-4.9,5.8-7.8c1.8-13.6,3.1-27.3,3.8-41.1c0.1-2.8-3.2-5.7-5-8.6c-1.5,2.8-4,5.5-4.2,8.4
		c-1,10.3-1.3,20.6-1.9,30.9c-0.9,0.2-1.8,0.3-2.7,0.5c-6.6-12.6-12.9-25.4-19.8-37.8c-1.5-2.7-4.9-4.4-7.5-6.6
		c-1.7,2.8-4.9,5.6-5,8.5c-0.6,14.4-0.6,28.8-0.1,43.1c0.1,2.4,3.4,4.6,5.3,6.9c1.7-2.4,4.6-4.7,4.8-7.2
		C999.5,188.3,999.1,180.7,999.1,170.3z M1245.6,181.3c0.6-0.1,1.2-0.2,1.8-0.2c1.7,3.1,3.3,6.2,5.1,9.2c1.9,3,3.7,6.2,6,8.9
		c6.2,7,13.8,6.1,16.3-2.8c3-10.2,4.6-20.9,6.3-31.5c0.7-4.4,0.8-10-5.6-10.1c-6.7-0.2-6.5,5.3-6.9,10.3c-0.5,6.7-1.7,13.4-2.6,20.1
		c-6.7-8.2-10.9-16.4-15.8-24.2c-1.5-2.4-5-4.1-7.9-4.9c-1.3-0.3-4.8,2.4-5,3.9c-1.3,11.9-2.3,23.8-2.7,35.7
		c-0.1,1.7,3.1,3.5,4.8,5.3c1.6-1.9,4-3.5,4.5-5.7C1245.1,190.8,1245.2,186,1245.6,181.3z M1087,179.3c-0.8-0.4-1.5-0.8-2.3-1.3
		c0.3-11.8-6-20.2-18.3-24.5c-11.6-4-18.9-0.9-21.6,11c-2.1,9.2-3.1,19.1-1.7,28.3c0.9,5.7,6.3,12.2,11.5,15.4
		c6.7,4.1,14.5,0.7,19-5.5C1078.9,195.4,1082.6,187.1,1087,179.3z M1173.9,180.3c0.6,4.7,0.4,9.4,1.9,13.4c1.1,2.9,4.4,5,6.8,7.5
		c1.4-2.8,4.3-5.8,4.1-8.5c-0.9-12.5-2.5-25-4.4-37.4c-0.3-2.2-3.4-4-5.2-6c-1.8,2-4.6,3.9-5,6.2c-0.8,4.2-0.2,8.7-0.2,13.3
		c-5.8,0.8-11.4,1.5-17.8,2.3c-0.8-4.3-1.2-8.8-2.7-12.9c-1-2.8-3.7-5.1-5.6-7.6c-1.4,3-4.2,6-4.1,9c0.6,12.8,1.7,25.7,3.6,38.4
		c0.5,3.1,4.5,5.8,6.9,8.6c1.5-3.2,4.1-6.3,4.4-9.6c0.4-5.2-0.9-10.6-1.5-16.6C1161.5,180.3,1167.1,180.3,1173.9,180.3z
		 M966.6,295.8c-0.1,11.7,3.6,21.9,11.9,30.1c7.3,7.3,16.1,6.2,21-2.1c6.7-11.4,5.5-34.6-3.9-44c-3.9-4-10.7-6.8-16.2-7
		c-5.1-0.1-10.8,3.6-11.4,10.6C967.7,287.6,967,291.7,966.6,295.8z M1163,265.8c4.4,0.3,7.7,0.9,10.8,0.5c1.7-0.2,3.8-1.9,4.5-3.4
		c0.5-1.1-0.7-4.4-1.4-4.5c-5.8-0.9-12-2.7-17.3-1.3c-3.3,0.9-6.9,6.9-7.2,10.9c-0.8,13.1-0.7,26.4,0.2,39.5c0.2,3.2,4.7,7.7,8,8.6
		c5.3,1.3,11.3,0.6,16.9-0.3c2.3-0.4,4.1-3.5,6.1-5.4c-2.2-2-4.1-5.2-6.6-5.8c-3.9-1-8.2-0.3-12.7-0.3c0-5,0-9.3,0-14
		c4,0.3,7.5,1.3,10.4,0.5c2.7-0.7,4.8-3.4,7.2-5.3c-2.1-2.1-3.9-5.2-6.5-6.1c-3.4-1.3-7.5-0.9-11.7-1.2
		C1163.5,274.1,1163.3,270.6,1163,265.8z M1315.8,193.6c-1.3,1.1-3.1,3.3-5.5,4.3c-0.9,0.4-3.5-1.8-4.5-3.4
		c-4-6.4-1.4-26.6,4.4-33.5c3.3,2.7,6.5,5.4,10.3,8.5c5-8.3,0.4-12.9-5.2-16.6c-6.1-4-12.5-3.8-16.3,3c-7.5,13.5-8.1,28.1-3.6,42.5
		c2.9,9.3,11.1,13,19,10.6c7.7-2.4,15.7-14.4,14.1-21.9c-1.6-7.4-7.7-8.2-13.4-7c-3.3,0.7-6,4.5-9,6.9
		C1309.2,189.1,1312.1,191.1,1315.8,193.6z M1349.4,288c1.5-2.2,3.2-4,4.2-6.1c3.7-7.6,0.2-19.6-6.2-22c-5.9-2.2-17.3,4.1-17.4,11.6
		c-0.3,12.7,1.4,25.5,2.9,38.2c0.2,1.7,3.7,3,5.6,4.5c1.4-2.3,3.8-4.5,4.1-6.9c0.4-3.7-0.6-7.6-0.9-11.4c4.7,4.7,7.6,9.9,11.3,14.4
		c2,2.5,6.7,6,8.2,5.2c5.6-3,1.5-7.1-0.5-10.4C1357.2,299.5,1353.4,294.1,1349.4,288z M1382.6,272.4c4.9-0.2,8.9,0.1,12.5-0.7
		c1.9-0.4,4-2.6,4.6-4.5c0.5-1.4-1.2-5.1-2.1-5.2c-6.4-0.3-13.5-1.5-19.1,0.8c-3.8,1.5-7.1,7.8-7.8,12.5c-1.1,7,0.2,14.3,0.6,21.5
		c1,16.9,5.5,20.3,22.2,16.9c4.7-1,10.6-1.4,9.7-8c-1-6.7-6.8-5.8-11.5-4.6c-6.9,1.8-8.6-0.6-7.7-4.6c5.9-3,14-5.4,13.9-7.2
		c-0.6-9.4-9.7-2.5-14.4-6.1C1383.2,280,1382.9,276.8,1382.6,272.4z M1119.6,293.5c3.7,0,6.7,0.7,8.9-0.2c2.6-1.1,4.6-3.6,6.8-5.5
		c-2-1.8-3.9-3.8-6.1-5.4c-0.8-0.6-2.6,0.3-3.5-0.3c-2.3-1.5-4.4-3.4-6.6-5.1c2.1-1.8,3.9-4.1,6.3-5.2c2-0.9,4.9,0,7-0.8
		c1.7-0.7,3.6-2.7,3.9-4.3c0.3-1.6-1.3-5.1-2.2-5.1c-6.4-0.1-13.2-0.6-19.1,1.3c-2.9,0.9-6.1,6.6-6.1,10.2
		c-0.2,12.2,0.6,24.4,1.8,36.6c0.2,2.5,3.4,6.2,5.8,6.6c5.5,1.1,11.3,1,16.8,0.3c2-0.3,3.7-3.8,5.5-5.8c-2.1-1.7-4-4.3-6.4-4.9
		c-3.3-0.8-7-0.2-10.6-0.2C1121.1,301.4,1120.4,297.9,1119.6,293.5z M1075.7,275.6c2.8-1.9,5.1-3.2,7.1-4.8c2-1.7,3.8-3.7,5.7-5.5
		c-2.7-1.5-6.2-4.8-8.1-4.1c-5.2,2.1-11.5,5-14.1,9.4c-2,3.4-0.2,10.3,2,14.5c2.5,4.9,7.5,8.4,11.1,12.8c1.9,2.3,3.3,5.1,5.7,9
		c-6.6,1.1-11.7,1.4-16.4,2.8c-2.1,0.6-4.1,3.2-4.9,5.3c-0.4,1.1,1.4,3.9,2.9,4.7c5.9,3.4,22.4-0.3,26.8-5.7
		c4.6-5.7,3.6-14.4-2.9-22.1C1086.1,286.6,1081.2,281.5,1075.7,275.6z M1247,287.7c0-5,0.5-9.2-0.2-13.1c-0.4-2.4-2.8-4.5-4.3-6.8
		c-1.6,2.1-4.4,4.2-4.6,6.4c-0.6,8.3-0.6,16.7-0.4,25.1c0.1,4.5-1.4,11.2,5.4,11.2c7.9,0,5.1-7,5.3-11.7c0-0.5,0.5-1,1-1.8
		c4.5,0,9.1,0,13.7,0c0.8,4.3,1.1,8.3,2.6,11.7c0.8,2,3.9,4.2,5.8,4.1c1.8-0.1,4.8-3.3,4.7-5.1c-0.4-11.9-1.2-23.9-2.4-35.8
		c-0.2-2-3.1-3.7-4.7-5.6c-1.6,1.9-4,3.6-4.5,5.8c-1,4.2-1,8.7-1.4,13.4C1257.7,286.3,1253,286.9,1247,287.7z M940.1,285.4
		c3.9,0,7.5,0.9,10.3-0.2c3-1.2,5.4-4.2,8-6.4c-2.7-2.2-5.3-6.3-8-6.3c-11.3-0.3-22.7,0.3-33.9,1.3c-2.4,0.2-4.5,3.8-6.7,5.8
		c2.4,2.2,4.4,5.3,7.2,6.3c3.1,1.1,6.9,0.3,11.5,0.3c0,10.4,0.1,19.9-0.1,29.4c-0.1,4.6-1,9.9,5.5,10c6.3,0.1,6-5.5,6.1-9.9
		C940.2,306.1,940.1,296.5,940.1,285.4z M1301.6,273.2c5.9-1.6,10.7-2.9,16.3-4.4c-8-9.8-21.6-8.8-24.4,0.8
		c-2.3,7.8-2.9,16.4-2.8,24.6c0.2,13.9,6.4,19.5,20.4,18.7c3.2-0.2,6.2-3.7,9.3-5.6c-3-1.7-5.9-4.7-8.9-4.8
		c-7.3-0.1-10.6-2.7-9.8-10.5c2.4-0.1,5,0.4,7-0.5c2.8-1.2,5.2-3.4,7.8-5.2c-2.7-1.8-5.2-3.9-8.1-5.1c-2-0.8-4.5-0.4-7.2-0.6
		C1301.3,277.6,1301.5,275.3,1301.6,273.2z M1103.9,166.7c0.9,9.6,1.7,21.5,3.3,33.3c0.3,2.3,3.7,4.3,5.7,6.4c1.1-2.7,3.3-5.4,3.2-8
		c-0.6-11.3-1.8-22.6-2.9-34.1c3.2-0.8,5.7-1,7.7-2.1c2.7-1.5,5.1-3.8,7.6-5.7c-3-1.6-5.9-4.3-9.1-4.7c-5.3-0.5-10.7,0.4-16.1,0.8
		c-4.5,0.4-11.1-1.5-11.3,5.1C1092,160.1,1098.4,162.7,1103.9,166.7z M1215.4,199.2c-1-12.8-1.7-22.9-2.7-33
		c-0.3-3.2-0.7-6.7-2.1-9.6c-0.8-1.7-3.9-3.9-5.3-3.5c-2,0.6-4.8,3.4-4.7,5.1c0.8,13.4,1.9,26.8,3.6,40.1c0.3,2.1,4.4,5.1,6.7,5.1
		C1213,203.4,1214.9,199.6,1215.4,199.2z M833.2,265.9c1.6-2.2,2.6-4.6,4.4-5.6c4.2-2.4,6.1-4.1,1.7-8.5c-2.5-2.5-3.2-6.9-4.9-10.3
		c-0.2-0.3-2.6-0.2-3.1,0.4c-3.8,4.3-7.4,8.8-11,13.3C824.3,258.5,828.6,262.1,833.2,265.9z M638.5,845.9c-1.2-2.2-2.2-5.5-4.4-7.6
		c-8.4-8.4-6.4,11.5-14.2,5.5c-0.4,1.7-0.9,3.5-1.1,5.2c0,0.3,0.9,0.6,1.3,1.1c2,2.3,3.9,4.6,5.9,6.9c0.9,1,2.1,2.4,3.2,2.4
		c1.1,0,2.5-1.3,3.2-2.4C634.5,853.6,636.1,850.2,638.5,845.9z M399.9,336.9c-4.2-3.6-7.8-6.7-11.3-9.8c-2.7,3.2-7.2,6.3-7.4,9.7
		c-0.2,3.3,3.9,7,6.1,10.5C391.2,344,395.2,340.8,399.9,336.9z M690.6,208.9c-2.8,4.3-5.9,7-5.5,9.1c0.4,2.3,4,5.7,6.1,5.7
		c2.1-0.1,5.5-3.8,5.7-6.1C697,215.5,693.7,213,690.6,208.9z M381.6,644.2c-4.5-2.9-7-5.5-9.5-5.6c-1.9,0-3.9,3.2-5.9,5
		c1.9,2.1,3.7,5.6,5.9,5.9C374.3,649.8,377,647,381.6,644.2z M436.3,713.2c-4,3.9-6.2,6-8.5,8.1c1.3,1.1,3.2,2.8,7.8,6.6
		C435.9,722,436.1,718.1,436.3,713.2z M1435.7,378.1c4.6-4.8,4.6-4.8,1.2-11.8c-1.6,2.6-3.4,5.4-5.1,8.2c-0.8-0.7-1.6-1.3-2.4-2
		C1431.2,374.3,1433.2,376,1435.7,378.1z"/>
	<path d="M840.4,530.7c19.2,3.6,39.2,8.3,59.6,10.8c43.7,5.4,87.6,8.9,131.2,14.7c46.2,6.1,92,14.4,128.5,47.9
		c8.9-20.9,24-34.9,41.7-46.1c36.9-23.3,61-56.7,76.9-96.6c1.8-4.6,2.3-9.8,3.6-14.7c1.5-5.4,3.5-10.3,10.5-10.2
		c6.8,0.1,10.9,3.6,11.7,10c0.6,5,0.8,10.3-0.4,15.1c-11.2,44.9-32.4,84-66.4,115.9c-15.6,14.7-32.8,28.2-41.8,48.7
		c-2.2,5.1-1.8,8.2,1.6,12.7c29.5,38.4,60.1,76.4,75.7,123.3c1.3,4,1.7,8.8,1.1,12.9c-1.8,11.3-4.9,13.5-16.2,12
		c-16.3-2-32.6-4.3-48.9-6.6c-5.5-0.8-8.5,1.4-12.5,5.6c-12.5,13.2-26.2,25.3-38.7,37.2c2.4,13.4,5.4,27.1,7.2,40.9
		c1.4,10.6-14.8,22.2-24.8,18.3c-1.5-0.6-3-2.1-3.8-3.5c-1.3-2.3-1.6-5.3-3.2-7.2c-6.1-7.3-12.6-14.3-18.6-20.9
		c-17.6,7.1-34.4,15.1-51.9,20.8c-62.1,20.2-124.9,19.6-187.7,3.1c-65.1-17.1-124.7-46-177-88.4c-17.3-14-31.1-32.2-46.8-48.3
		c-2.4-2.4-6.1-4.5-9.4-4.8c-16.4-1.7-32.9-2.7-47.4-11.8c-5.4-3.4-10.5-15.8-7.5-21c1.3-2.3,5.6-3.9,8.6-4.1
		c8.2-0.6,16.5-0.2,26.1-0.2c-7.2-14.1-13.4-27-20.3-39.4c-1.2-2.1-5.6-2.8-8.7-3.5c-66.1-13.4-110.6-52.9-133.8-115.1
		c-15-40.1-9-80.9,4.7-120.7c21.5-62.7,66.1-100.7,128-120.9c48.1-15.7,96.6-18.1,145-4.6c39.6,11,69.2,36.9,91.1,71.6
		c29.6,46.9,31.6,96.9,16.7,148.7c-1.5,5.2-3,10.3-4.5,15.5C839.3,528.3,839.6,528.7,840.4,530.7z M609.9,655.5
		c22.9,46.8,52.2,89.1,92.1,122.8c50.2,42.4,108.6,69.7,171.6,87.1c59,16.3,118.3,16.6,177.3-0.2c51.4-14.6,95.3-42.5,134.9-77.8
		c2.4-2.1,4.3-4.6,7-7.5c-15.3-5.2-32-2.5-45.5-15.3c39.2,5.2,76.5,10.1,115,15.3c1.2-4.8,4.4-10,3-13.2
		c-10.9-26.9-22.4-53.6-40.4-76.8c-8.2-10.7-15.8-21.8-24.3-32.3c-34-42.4-74.1-75.8-129.3-86.1c-26.8-5-53.6-9.7-80.6-13.4
		c-50.7-6.9-102.2-7.3-152.1-20.4c-2.3-0.6-6.1,1.4-8.2,3.2c-16,13.5-31.2,28-47.7,40.9c-35.2,27.5-73.2,50-116.8,61.4
		C647.7,647.8,629.1,651.3,609.9,655.5z M833.4,520c14.8-36.8,16.8-89.5-2.6-129.7c-20.4-42.2-51.3-73.4-96.1-87.5
		c-47.5-14.9-95.7-13.2-143.1,2.5c-48.5,16.1-89.2,41.1-110.6,90.9c-15.7,36.3-25.4,73.7-19.2,112.7c9.5,59.4,44.2,101,98.5,126
		c10.1,4.6,21.1,7.1,31.7,10.5c-19.6-43.2-25.7-87.3-25.2-132.7c0.1-11,1.6-22.1,3.3-33c1.2-8,6.7-9.6,12.8-4.1c3,2.7,5.6,6,8.3,8.9
		c48.3-42.8,107.4-46.2,166.6-50.6c3.3-6.6,6.2-14.3,10.8-20.8c2.7-3.8,8.2-5.6,12.5-8.3c2.3,4.2,7.1,8.8,6.5,12.5
		c-3.5,19.6,6.2,33.5,17.6,47.1c2.7,3.2,4.7,7,6.5,10.7C819,490.2,826.2,505.2,833.4,520z M578.2,482.9c-0.8,5.2-1.7,8.4-1.7,11.6
		c0.1,20.6-0.5,41.3,0.9,61.9c2,30.2,10.6,58.8,25,85.6c2.2,4,4.3,5,9,4.3c83.9-12.8,152.3-54.6,212.1-112.7c1.8-1.7,3-6.1,2.1-8.2
		c-11.8-26.9-23.4-53.9-43.1-76.3c-2.4-2.7-3.4-7.3-3.7-11.2c-0.6-7-0.2-14-0.2-21.1c-0.9-0.2-1.8-0.5-2.7-0.7
		c-3.5,7.7-6.8,15.6-10.8,23.1c-1.3,2.4-4.2,5.3-6.6,5.6c-22.3,2-44.8,2.2-66.9,5.4c-36.3,5.3-70.6,16.3-97.5,43.3
		c-1.2,1.2-2.8,1.9-4.3,2.9C586.2,492.2,582.9,488.4,578.2,482.9z M1185.9,626.2c7.1-20,21-33.4,35.5-45.9
		c36.3-31.5,60.4-70.7,73-116.9c1.4-5.2,1.5-10.7,2.1-16.1c-0.9-0.2-1.8-0.5-2.7-0.7c-1.4,2.7-3.1,5.2-4.1,8.1
		c-15.5,46.4-42.4,83.8-83.9,110.7c-12.3,8-22.9,19.2-32.5,30.4c-9.5,11-8.6,11.9,2,21.2C1178.5,619.8,1181.7,622.5,1185.9,626.2z
		 M1120.4,846.5c7.3,7.7,13.9,15.1,20.9,21.8c1.5,1.4,5.6,1.9,7.5,0.9c3.3-1.7,8.3-5.2,8.1-7.4c-1.1-11.3-3.7-22.5-6-34.7
		c-6.6,4.2-11.1,7.1-15.6,9.9C1130.9,839.8,1126.3,842.7,1120.4,846.5z M594.8,703.3c1.1,15.3,16.4,22.5,46,22.6
		c-4.7-7.1-8.9-13.8-13.6-20.2c-1-1.3-3.4-2.3-5.2-2.3C613.2,703.2,604.2,703.3,594.8,703.3z"/>
	<path d="M1133.9,236.3c-45.8,0.6-91.6,1.3-137.4,1.8c-3.8,0-8-0.2-11.4-1.6c-2.5-1.1-4.1-4.4-6.1-6.6c2.6-1.5,5.1-4.1,7.8-4.2
		c9.2-0.6,18.5-0.1,27.8-0.3c86.8-2.5,173.6-5,260.3-7.7c16.7-0.5,33.5-1.5,50.2-2.6c6-0.4,10.8,0.9,11,7.2
		c0.2,6.1-4.9,7.3-10.2,7.5c-49.4,1.5-98.7,3.2-148.1,4.6c-14.7,0.4-29.3,0.1-44,0.1C1133.9,235,1133.9,235.6,1133.9,236.3z"/>
	<path d="M999.1,170.3c0,10.3,0.4,18-0.2,25.6c-0.2,2.5-3.1,4.8-4.8,7.2c-1.8-2.3-5.2-4.6-5.3-6.9c-0.5-14.4-0.4-28.8,0.1-43.1
		c0.1-2.9,3.3-5.7,5-8.5c2.5,2.2,5.9,3.8,7.5,6.6c6.9,12.4,13.3,25.2,19.8,37.8c0.9-0.2,1.8-0.3,2.7-0.5c0.6-10.3,0.9-20.7,1.9-30.9
		c0.3-2.9,2.8-5.6,4.2-8.4c1.8,2.9,5.1,5.8,5,8.6c-0.7,13.7-2,27.4-3.8,41.1c-0.4,2.9-3.2,6.6-5.8,7.8c-1.5,0.7-5.7-2.6-7.3-5.1
		C1011.9,192.1,1006.3,182.3,999.1,170.3z"/>
	<path d="M1245.6,181.3c-0.5,4.7-0.5,9.5-1.6,14c-0.5,2.1-3,3.8-4.5,5.7c-1.7-1.8-4.9-3.6-4.8-5.3c0.5-11.9,1.4-23.8,2.7-35.7
		c0.2-1.6,3.7-4.3,5-3.9c2.9,0.7,6.4,2.5,7.9,4.9c4.9,7.7,9.1,16,15.8,24.2c0.9-6.7,2.1-13.4,2.6-20.1c0.4-5,0.2-10.5,6.9-10.3
		c6.4,0.2,6.3,5.7,5.6,10.1c-1.7,10.6-3.3,21.2-6.3,31.5c-2.6,8.8-10.1,9.8-16.3,2.8c-2.3-2.7-4.2-5.8-6-8.9c-1.8-3-3.4-6.1-5.1-9.2
		C1246.9,181.2,1246.3,181.2,1245.6,181.3z"/>
	<path d="M1087,179.3c-4.4,7.8-8.1,16.1-13.3,23.4c-4.5,6.2-12.3,9.6-19,5.5c-5.2-3.1-10.6-9.7-11.5-15.4
		c-1.5-9.1-0.4-19.1,1.7-28.3c2.7-11.9,10-14.9,21.6-11c12.3,4.2,18.6,12.7,18.3,24.5C1085.5,178.5,1086.3,178.9,1087,179.3z
		 M1057.7,162.6c-4.4,8.3-6,22.9-3.4,29.8c1.7,4.5,4.4,7.7,9.3,4.1c7.2-5.4,10.8-12.8,9.3-21.9
		C1071.6,166.6,1065.7,163.5,1057.7,162.6z"/>
	<path d="M1173.9,180.3c-6.9,0-12.4,0-18.8,0c0.6,6,1.8,11.4,1.5,16.6c-0.2,3.3-2.8,6.4-4.4,9.6c-2.4-2.9-6.5-5.5-6.9-8.6
		c-1.9-12.7-2.9-25.5-3.6-38.4c-0.1-2.9,2.6-6,4.1-9c1.9,2.5,4.6,4.7,5.6,7.6c1.5,4.1,1.8,8.6,2.7,12.9c6.4-0.8,11.9-1.5,17.8-2.3
		c0-4.5-0.6-9,0.2-13.3c0.4-2.3,3.3-4.1,5-6.2c1.8,2,4.8,3.8,5.2,6c1.9,12.4,3.5,24.9,4.4,37.4c0.2,2.7-2.6,5.7-4.1,8.5
		c-2.3-2.5-5.7-4.6-6.8-7.5C1174.3,189.7,1174.5,185,1173.9,180.3z"/>
	<path d="M966.6,295.8c0.5-4.1,1.1-8.3,1.5-12.4c0.6-7,6.3-10.7,11.4-10.6c5.5,0.1,12.3,3,16.2,7c9.3,9.4,10.6,32.6,3.9,44
		c-4.9,8.3-13.7,9.4-21,2.1C970.2,317.7,966.5,307.5,966.6,295.8z M978.3,283.3c-2.9,19.1,1,31.1,11,35.1
		C996.5,302.7,991.6,286,978.3,283.3z"/>
	<path d="M1163,265.8c0.3,4.9,0.5,8.4,0.8,12.3c4.2,0.4,8.2,0,11.7,1.2c2.6,0.9,4.3,4,6.5,6.1c-2.4,1.8-4.5,4.6-7.2,5.3
		c-3,0.8-6.4-0.2-10.4-0.5c0,4.7,0,8.9,0,14c4.6,0,8.9-0.7,12.7,0.3c2.5,0.6,4.4,3.8,6.6,5.8c-2,1.9-3.8,5.1-6.1,5.4
		c-5.6,0.9-11.6,1.6-16.9,0.3c-3.3-0.8-7.7-5.4-8-8.6c-1-13.1-1.1-26.4-0.2-39.5c0.2-3.9,3.9-10,7.2-10.9c5.3-1.5,11.5,0.4,17.3,1.3
		c0.8,0.1,2,3.4,1.4,4.5c-0.8,1.6-2.8,3.2-4.5,3.4C1170.7,266.6,1167.4,266,1163,265.8z"/>
	<path d="M1315.8,193.6c-3.7-2.5-6.6-4.5-9.6-6.5c3-2.4,5.6-6.2,9-6.9c5.6-1.2,11.7-0.3,13.4,7c1.6,7.4-6.3,19.5-14.1,21.9
		c-7.9,2.4-16.1-1.4-19-10.6c-4.5-14.4-3.9-29,3.6-42.5c3.8-6.8,10.2-6.9,16.3-3c5.7,3.7,10.2,8.3,5.2,16.6c-3.8-3.1-7-5.8-10.3-8.5
		c-5.8,6.9-8.3,27-4.4,33.5c1,1.6,3.6,3.7,4.5,3.4C1312.7,196.9,1314.5,194.7,1315.8,193.6z"/>
	<path d="M1349.4,288c4,6.1,7.8,11.5,11.2,17.1c2,3.3,6.1,7.4,0.5,10.4c-1.5,0.8-6.1-2.7-8.2-5.2c-3.7-4.5-6.6-9.7-11.3-14.4
		c0.4,3.8,1.4,7.7,0.9,11.4c-0.3,2.4-2.6,4.6-4.1,6.9c-2-1.5-5.5-2.8-5.6-4.5c-1.4-12.7-3.2-25.5-2.9-38.2
		c0.2-7.5,11.5-13.8,17.4-11.6c6.4,2.4,9.8,14.4,6.2,22C1352.6,284,1351,285.8,1349.4,288z"/>
	<path d="M1382.6,272.4c0.3,4.4,0.6,7.6,0.8,10.6c4.7,3.6,13.8-3.3,14.4,6.1c0.1,1.9-7.9,4.2-13.9,7.2c-0.9,4,0.8,6.4,7.7,4.6
		c4.7-1.2,10.5-2.1,11.5,4.6c1,6.6-5,7-9.7,8c-16.7,3.4-21.2,0.1-22.2-16.9c-0.4-7.2-1.7-14.5-0.6-21.5c0.7-4.6,4.1-11,7.8-12.5
		c5.6-2.2,12.7-1.1,19.1-0.8c0.9,0,2.6,3.7,2.1,5.2c-0.6,1.9-2.7,4.1-4.6,4.5C1391.5,272.4,1387.5,272.1,1382.6,272.4z"/>
	<path d="M1119.6,293.5c0.8,4.5,1.5,7.9,2.2,12.2c3.6,0,7.3-0.6,10.6,0.2c2.4,0.6,4.3,3.2,6.4,4.9c-1.8,2-3.4,5.6-5.5,5.8
		c-5.5,0.7-11.4,0.8-16.8-0.3c-2.3-0.5-5.5-4.2-5.8-6.6c-1.2-12.1-2-24.4-1.8-36.6c0.1-3.6,3.2-9.3,6.1-10.2
		c5.9-1.9,12.7-1.4,19.1-1.3c0.8,0,2.4,3.5,2.2,5.1c-0.3,1.7-2.2,3.7-3.9,4.3c-2.1,0.8-5-0.1-7,0.8c-2.4,1.1-4.2,3.4-6.3,5.2
		c2.2,1.7,4.2,3.6,6.6,5.1c0.9,0.6,2.7-0.3,3.5,0.3c2.2,1.6,4.1,3.6,6.1,5.4c-2.3,1.9-4.2,4.4-6.8,5.5
		C1126.3,294.2,1123.3,293.5,1119.6,293.5z"/>
	<path d="M1075.7,275.6c5.4,5.9,10.3,11.1,14.9,16.5c6.5,7.7,7.6,16.4,2.9,22.1c-4.4,5.4-20.9,9.1-26.8,5.7
		c-1.5-0.9-3.3-3.7-2.9-4.7c0.9-2.2,2.9-4.7,4.9-5.3c4.7-1.4,9.8-1.8,16.4-2.8c-2.4-3.9-3.8-6.7-5.7-9c-3.6-4.4-8.6-7.9-11.1-12.8
		c-2.2-4.2-4-11.1-2-14.5c2.6-4.4,8.8-7.3,14.1-9.4c1.8-0.7,5.3,2.6,8.1,4.1c-1.9,1.9-3.6,3.8-5.7,5.5
		C1080.9,272.4,1078.6,273.7,1075.7,275.6z"/>
	<path d="M1247,287.7c6-0.8,10.7-1.4,15.9-2.1c0.4-4.7,0.4-9.2,1.4-13.4c0.5-2.2,3-3.9,4.5-5.8c1.6,1.9,4.5,3.6,4.7,5.6
		c1.2,11.9,2,23.8,2.4,35.8c0.1,1.8-2.9,4.9-4.7,5.1c-1.9,0.2-4.9-2.1-5.8-4.1c-1.5-3.5-1.7-7.5-2.6-11.7c-4.6,0-9.2,0-13.7,0
		c-0.5,0.8-1,1.3-1,1.8c-0.1,4.7,2.6,11.7-5.3,11.7c-6.9,0-5.3-6.7-5.4-11.2c-0.2-8.4-0.2-16.8,0.4-25.1c0.2-2.2,3-4.3,4.6-6.4
		c1.5,2.3,3.9,4.3,4.3,6.8C1247.5,278.5,1247,282.7,1247,287.7z"/>
	<path d="M940.1,285.4c0,11.1,0.1,20.6,0,30.2c-0.1,4.4,0.3,10-6.1,9.9c-6.5-0.1-5.6-5.4-5.5-10c0.2-9.5,0.1-19,0.1-29.4
		c-4.6,0-8.4,0.8-11.5-0.3c-2.8-1-4.9-4.1-7.2-6.3c2.2-2,4.3-5.6,6.7-5.8c11.3-1,22.6-1.6,33.9-1.3c2.7,0.1,5.3,4.1,8,6.3
		c-2.6,2.2-5,5.2-8,6.4C947.6,286.3,944,285.4,940.1,285.4z"/>
	<path d="M1301.6,273.2c-0.1,2.1-0.2,4.4-0.4,7.3c2.7,0.2,5.2-0.3,7.2,0.6c2.9,1.2,5.4,3.4,8.1,5.1c-2.6,1.8-5,4-7.8,5.2
		c-2,0.9-4.6,0.4-7,0.5c-0.8,7.9,2.5,10.4,9.8,10.5c3,0,6,3.1,8.9,4.8c-3.1,2-6.1,5.4-9.3,5.6c-13.9,0.8-20.2-4.8-20.4-18.7
		c-0.1-8.2,0.5-16.8,2.8-24.6c2.8-9.6,16.4-10.6,24.4-0.8C1312.3,270.3,1307.5,271.6,1301.6,273.2z"/>
	<path d="M1103.9,166.7c-5.5-4-11.9-6.6-11.8-9c0.2-6.6,6.8-4.8,11.3-5.1c5.4-0.4,10.8-1.3,16.1-0.8c3.1,0.3,6.1,3,9.1,4.7
		c-2.5,1.9-4.8,4.2-7.6,5.7c-2,1.1-4.4,1.3-7.7,2.1c1,11.6,2.3,22.8,2.9,34.1c0.1,2.6-2.1,5.3-3.2,8c-2-2.1-5.4-4-5.7-6.4
		C1105.6,188.2,1104.8,176.3,1103.9,166.7z"/>
	<path d="M1215.4,199.2c-0.4,0.5-2.4,4.2-4.4,4.3c-2.3,0-6.5-3-6.7-5.1c-1.8-13.3-2.9-26.7-3.6-40.1c-0.1-1.7,2.7-4.6,4.7-5.1
		c1.4-0.4,4.5,1.7,5.3,3.5c1.4,2.9,1.8,6.3,2.1,9.6C1213.6,176.2,1214.4,186.4,1215.4,199.2z"/>
	<path d="M833.2,265.9c-4.7-3.9-9-7.5-12.9-10.7c3.7-4.5,7.2-9,11-13.3c0.6-0.6,2.9-0.8,3.1-0.4c1.7,3.4,2.4,7.7,4.9,10.3
		c4.4,4.4,2.5,6.1-1.7,8.5C835.9,261.3,834.9,263.8,833.2,265.9z"/>
	<path d="M638.5,845.9c-2.3,4.3-4,7.8-6,11.1c-0.7,1.1-2.1,2.4-3.2,2.4c-1.1,0-2.3-1.4-3.2-2.4c-2-2.2-3.9-4.6-5.9-6.9
		c-0.4-0.4-1.4-0.8-1.3-1.1c0.3-1.8,0.7-3.5,1.1-5.2c7.8,6,5.8-13.9,14.2-5.5C636.2,840.4,637.2,843.6,638.5,845.9z"/>
	<path d="M399.9,336.9c-4.7,3.9-8.6,7.1-12.6,10.4c-2.2-3.5-6.4-7.1-6.1-10.5c0.2-3.4,4.8-6.5,7.4-9.7
		C392.1,330.2,395.7,333.2,399.9,336.9z"/>
	<path d="M690.6,208.9c3.1,4.1,6.5,6.5,6.3,8.7c-0.2,2.3-3.6,6-5.7,6.1c-2.1,0.1-5.7-3.3-6.1-5.7
		C684.7,215.9,687.8,213.2,690.6,208.9z"/>
	<path d="M381.6,644.2c-4.6,2.7-7.3,5.6-9.5,5.3c-2.2-0.3-3.9-3.8-5.9-5.9c2-1.8,4-5,5.9-5C374.6,638.7,377,641.4,381.6,644.2z"/>
	<path d="M436.3,713.2c-0.2,5-0.4,8.8-0.7,14.8c-4.6-3.9-6.5-5.6-7.8-6.6C430.1,719.1,432.3,717,436.3,713.2z"/>
	<path d="M1435.7,378.1c-2.4-2.1-4.4-3.8-6.4-5.6c0.8,0.7,1.6,1.3,2.4,2c1.8-2.8,3.5-5.6,5.1-8.2
		C1440.2,373.3,1440.2,373.3,1435.7,378.1z"/>
	<path class="st0" d="M609.9,655.5c19.3-4.3,37.8-7.7,56-12.5c43.6-11.4,81.7-33.9,116.8-61.4c16.5-12.9,31.7-27.4,47.7-40.9
		c2.2-1.8,5.9-3.8,8.2-3.2C888.5,550.7,940,551,990.7,558c27,3.7,53.8,8.4,80.6,13.4c55.3,10.2,95.4,43.7,129.3,86.1
		c8.4,10.5,16,21.7,24.3,32.3c18,23.2,29.5,49.9,40.4,76.8c1.3,3.3-1.8,8.4-3,13.2c-38.5-5.1-75.7-10.1-115-15.3
		c13.5,12.8,30.2,10.1,45.5,15.3c-2.6,2.9-4.6,5.4-7,7.5c-39.6,35.3-83.5,63.2-134.9,77.8c-59,16.8-118.3,16.5-177.3,0.2
		c-63-17.4-121.4-44.8-171.6-87.1C662.1,744.6,632.8,702.4,609.9,655.5z M726.4,668.1c17.2-5.3,33.2-10,49-15.3c2-0.7,3-4.1,4.4-6.3
		c-2.4,0.1-5-0.2-7.3,0.5c-15.2,4.1-30.3,8.7-45.7,12.5c-9.5,2.4-12.1,4.9-8.9,14.1c1.5,4.4,5,9.1,9,11.4c16,9.3,33.5,10,51.2,6.3
		c3.4-0.7,6.2-4.4,9.3-6.7c-0.5-0.8-1-1.7-1.6-2.5c-1.9,0.3-3.9,0.3-5.6,0.9c-14.5,4.8-28.8,3.7-43.1-0.6
		C729.6,680.2,724.2,676.3,726.4,668.1z"/>
	<path class="st0" d="M833.4,520c-7.2-14.8-14.4-29.8-21.7-44.7c-1.9-3.7-3.9-7.5-6.5-10.7c-11.4-13.7-21.2-27.5-17.6-47.1
		c0.7-3.7-4.2-8.3-6.5-12.5c-4.3,2.7-9.8,4.5-12.5,8.3c-4.6,6.5-7.5,14.2-10.8,20.8c-59.2,4.3-118.4,7.8-166.6,50.6
		c-2.7-2.9-5.2-6.2-8.3-8.9c-6.1-5.5-11.5-4-12.8,4.1c-1.7,10.9-3.2,22-3.3,33c-0.5,45.4,5.6,89.5,25.2,132.7
		c-10.6-3.5-21.6-5.9-31.7-10.5c-54.4-25-89-66.6-98.5-126c-6.2-39,3.5-76.4,19.2-112.7c21.5-49.8,62.1-74.8,110.6-90.9
		c47.4-15.7,95.6-17.4,143.1-2.5c44.9,14.1,75.7,45.3,96.1,87.5C850.2,430.5,848.2,483.2,833.4,520z M694.2,306.6
		c-1.3,0.8-3.9,2.2-6.5,3.7c2.4,1.7,4.5,4.4,7.1,5c26.5,5.9,51.6,14.9,74.9,29.1c2.5,1.5,6.2,0.8,9.4,1.1c-1.2-3.2-1.5-7.9-3.8-9.4
		C751.2,320.5,724.7,310.9,694.2,306.6z M812.2,371.3c-6.9-5.9-12.1-10.3-17.5-14.4c-0.3-0.2-5.3,5.1-5.1,5.4
		c4.2,5.4,8.8,10.5,13.8,15.1C803.8,377.9,807.7,374.5,812.2,371.3z"/>
	<path class="st0" d="M578.2,482.9c4.7,5.5,7.9,9.3,11.6,13.5c1.5-1,3.1-1.7,4.3-2.9c26.9-27,61.2-38,97.5-43.3
		c22.1-3.2,44.6-3.4,66.9-5.4c2.4-0.2,5.3-3.1,6.6-5.6c4-7.5,7.2-15.4,10.8-23.1c0.9,0.2,1.8,0.5,2.7,0.7c0,7-0.4,14.1,0.2,21.1
		c0.3,3.9,1.3,8.5,3.7,11.2c19.8,22.4,31.3,49.4,43.1,76.3c0.9,2.1-0.3,6.5-2.1,8.2c-59.8,58-128.2,99.9-212.1,112.7
		c-4.8,0.7-6.8-0.2-9-4.3c-14.4-26.8-23-55.3-25-85.6c-1.4-20.6-0.8-41.3-0.9-61.9C576.6,491.3,577.5,488.1,578.2,482.9z
		 M690.5,544.6c-4.3-1.4-7.3-2.4-10.3-3.4c-0.3,1.9-1.6,4.9-0.8,5.6c2.6,2.4,5.9,4.1,9.2,5.8c0.9,0.5,2.5,0.2,3.5-0.3
		c5.3-2.4,10.8-4.5,15.6-7.7c2.2-1.5,3.2-5.3,3.8-8.3c0.2-1.1-3.2-4.1-3.6-3.9c-2.3,1.4-4.2,3.4-6.7,5.7
		C694.3,533.2,692.8,540.5,690.5,544.6z M746,517.7c4-4.7,8.7-7.9,8.4-10.5c-0.4-3.1-6.1-8.7-7.4-8.1c-3.9,1.6-7.3,5.4-9.7,9.2
		C736.7,509,741.7,513.2,746,517.7z M628.8,553.7c3.7-5.3,7.8-8.7,7.3-11.1c-0.6-3-5.3-7.6-7.7-7.3c-3.3,0.4-7.9,4.5-8.5,7.6
		C619.5,545.3,624.4,548.7,628.8,553.7z"/>
	<path class="st0" d="M1185.9,626.2c-4.2-3.7-7.4-6.4-10.5-9.2c-10.6-9.4-11.5-10.2-2-21.2c9.7-11.2,20.2-22.4,32.5-30.4
		c41.5-27,68.4-64.3,83.9-110.7c0.9-2.8,2.7-5.4,4.1-8.1c0.9,0.2,1.8,0.5,2.7,0.7c-0.7,5.4-0.7,10.9-2.1,16.1
		c-12.7,46.2-36.7,85.4-73,116.9C1206.9,592.9,1193,606.2,1185.9,626.2z"/>
	<path class="st0" d="M1120.4,846.5c5.9-3.8,10.4-6.6,14.9-9.5c4.5-2.9,9-5.8,15.6-9.9c2.3,12.3,4.9,23.4,6,34.7
		c0.2,2.3-4.8,5.7-8.1,7.4c-1.9,1-6,0.6-7.5-0.9C1134.3,861.5,1127.8,854.2,1120.4,846.5z"/>
	<path class="st0" d="M594.8,703.3c9.4,0,18.4-0.1,27.3,0.1c1.8,0,4.2,1,5.2,2.3c4.6,6.4,8.9,13.2,13.6,20.2
		C611.2,725.8,595.9,718.6,594.8,703.3z"/>
	<path class="st0" d="M1057.7,162.6c8,0.9,13.9,4,15.2,12c1.5,9-2.1,16.5-9.3,21.9c-4.9,3.7-7.6,0.5-9.3-4.1
		C1051.7,185.4,1053.2,170.8,1057.7,162.6z"/>
	<path class="st0" d="M978.3,283.3c13.3,2.7,18.2,19.3,11,35.1C979.3,314.4,975.5,302.4,978.3,283.3z"/>
	<path d="M726.4,668.1c-2.2,8.2,3.2,12,10.7,14.3c14.3,4.3,28.7,5.4,43.1,0.6c1.8-0.6,3.8-0.6,5.6-0.9c0.5,0.8,1,1.7,1.6,2.5
		c-3.1,2.3-5.9,6-9.3,6.7c-17.7,3.7-35.2,3-51.2-6.3c-3.9-2.3-7.5-7-9-11.4c-3.2-9.2-0.6-11.8,8.9-14.1c15.3-3.8,30.4-8.4,45.7-12.5
		c2.3-0.6,4.8-0.3,7.3-0.5c-1.5,2.2-2.5,5.6-4.4,6.3C759.6,658.1,743.6,662.8,726.4,668.1z"/>
	<path d="M694.2,306.6c30.5,4.3,57,13.9,81.2,29.6c2.3,1.5,2.6,6.2,3.8,9.4c-3.2-0.3-6.9,0.4-9.4-1.1
		c-23.3-14.2-48.4-23.2-74.9-29.1c-2.6-0.6-4.8-3.3-7.1-5C690.3,308.8,692.9,307.4,694.2,306.6z"/>
	<path d="M812.2,371.3c-4.4,3.2-8.4,6.6-8.8,6.2c-5-4.6-9.5-9.8-13.8-15.1c-0.2-0.3,4.8-5.6,5.1-5.4
		C800.1,361,805.2,365.5,812.2,371.3z"/>
	<path d="M690.5,544.6c2.3-4.2,3.8-11.4,10.6-6.4c2.5-2.3,4.4-4.3,6.7-5.7c0.4-0.2,3.8,2.8,3.6,3.9c-0.6,3-1.6,6.8-3.8,8.3
		c-4.7,3.2-10.3,5.3-15.6,7.7c-1,0.5-2.6,0.8-3.5,0.3c-3.2-1.7-6.5-3.4-9.2-5.8c-0.8-0.7,0.5-3.7,0.8-5.6
		C683.2,542.3,686.2,543.2,690.5,544.6z"/>
	<path d="M746,517.7c-4.3-4.5-9.2-8.8-8.8-9.5c2.4-3.7,5.8-7.5,9.7-9.2c1.3-0.5,7.1,5,7.4,8.1C754.6,509.8,750,513,746,517.7z"/>
	<path d="M628.8,553.7c-4.4-5-9.3-8.4-8.9-10.8c0.6-3.1,5.2-7.2,8.5-7.6c2.4-0.3,7.1,4.3,7.7,7.3C636.6,545,632.5,548.4,628.8,553.7
		z"/>
</g>
</svg>
